<svg xmlns="http://www.w3.org/2000/svg" xmlns:xlink="http://www.w3.org/1999/xlink" width="700" height="500" class="main-svg" viewBox="0 0 700 500"><rect width="700" height="500" x="0" y="0" style="fill:#fff;fill-opacity:1"/><g class="pielayer"><g stroke-linejoin="round" class="trace" style="opacity:1"><g class="slice"><path d="M285,260l0,-160a160,160 0 0 1 57.08698265253651,309.46931595357285Z" class="surface" style="pointer-events:all;stroke-width:0;fill:#1f76b3;fill-opacity:1;stroke:#444;stroke-opacity:1"/><g class="slicetext"><text x="0" y="0" class="slicetext" data-notex="1" text-anchor="middle" transform="translate(364.3307746254618,245.36606273581114)translate(0,-3.296875)" style="font-family:'Open Sans',verdana,arial,sans-serif;font-size:12px;fill:#fff;fill-opacity:1;white-space:pre"><tspan x="0" y="0" class="line" dy="0em">Bothell</tspan><tspan x="0" y="0" class="line" dy="1.3em">44.2%</tspan></text></g></g><g class="slice"><path d="M285,260l-125.23152382183433,-99.58446385486715a160,160 0 0 1 125.23152382183433,-60.41553614513285Z" class="surface" style="pointer-events:all;stroke-width:0;fill:#fe7f0e;fill-opacity:1;stroke:#444;stroke-opacity:1"/><g class="slicetext"><text x="0" y="0" class="slicetext" data-notex="1" text-anchor="middle" transform="translate(236.53637828254966,159.54283972550343)translate(0,-3.296875)" style="font-family:'Open Sans',verdana,arial,sans-serif;font-size:12px;fill:#444;fill-opacity:1;white-space:pre"><tspan x="0" y="0" class="line" dy="0em">Peterborough</tspan><tspan x="0" y="0" class="line" dy="1.3em">14.3%</tspan></text></g></g><g class="slice"><path d="M285,260l-159.75563471326092,8.839523593675668a160,160 0 0 1 34.52411089142659,-108.42398744854282Z" class="surface" style="pointer-events:all;stroke-width:0;fill:#2ca02c;fill-opacity:1;stroke:#444;stroke-opacity:1"/><g class="slicetext"><text x="0" y="0" class="slicetext" data-notex="1" text-anchor="middle" transform="translate(172.5337924522449,224.18877489854688)translate(-0.1328125,-3.296875)" style="font-family:'Open Sans',verdana,arial,sans-serif;font-size:12px;fill:#fff;fill-opacity:1;white-space:pre"><tspan x="0" y="0" class="line" dy="0em">Hohhot</tspan><tspan x="0" y="0" class="line" dy="1.3em">11.6%</tspan></text></g></g><g class="slice"><path d="M285,260l-124.94926579252365,99.93838590806477a160,160 0 0 1 -34.80636892073727,-91.09886231438911Z" class="surface" style="pointer-events:all;stroke-width:0;fill:#d62727;fill-opacity:1;stroke:#444;stroke-opacity:1"/><g class="slicetext"><text x="0" y="0" class="slicetext" data-notex="1" text-anchor="middle" transform="translate(55.50647793194207,319.0539984813664)translate(0.4921875,-3.296875)" style="font-family:'Open Sans',verdana,arial,sans-serif;font-size:12px;fill:#2a3f5f;fill-opacity:1;white-space:pre"><tspan x="0" y="0" class="line" dy="0em">Villingen-Schwenningen</tspan><tspan x="0" y="0" class="line" dy="1.3em">9.86%</tspan></text></g></g><g class="slice"><path d="M285,260l-56.64840578566099,149.63608562757545a160,160 0 0 1 -68.30086000686265,-49.69769971951068Z" class="surface" style="pointer-events:all;stroke-width:0;fill:#9366bd;fill-opacity:1;stroke:#444;stroke-opacity:1"/><g class="slicetext"><text x="0" y="0" class="slicetext" data-notex="1" text-anchor="middle" transform="translate(210.52184317383353,362.3572960451547)translate(-0.3671875,-3.296875)" style="font-family:'Open Sans',verdana,arial,sans-serif;font-size:12px;fill:#fff;fill-opacity:1;white-space:pre"><tspan x="0" y="0" class="line" dy="0em">Nantes</tspan><tspan x="0" y="0" class="line" dy="1.3em">8.5%</tspan></text></g></g><g class="slice"><path d="M285,260l26.78390215444569,157.7422663251073a160,160 0 0 1 -83.43230794010668,-8.10618069753184Z" class="surface" style="pointer-events:all;stroke-width:0;fill:#8c564a;fill-opacity:1;stroke:#444;stroke-opacity:1"/><g class="slicetext"><text x="0" y="0" class="slicetext" data-notex="1" text-anchor="middle" transform="translate(272.73921223200176,386.1933157941305)translate(0,-3.296875)" style="font-family:'Open Sans',verdana,arial,sans-serif;font-size:12px;fill:#fff;fill-opacity:1;white-space:pre"><tspan x="0" y="0" class="line" dy="0em">Cabo Frio</tspan><tspan x="0" y="0" class="line" dy="1.3em">8.44%</tspan></text></g></g><g class="slice"><path d="M285,260l56.96153917426902,149.5171664221143a160,160 0 0 1 -30.17763701982333,8.225099902993009Z" class="surface" style="pointer-events:all;stroke-width:0;fill:#e377c1;fill-opacity:1;stroke:#444;stroke-opacity:1"/><g class="slicetext"><text x="0" y="0" class="slicetext" data-notex="1" text-anchor="middle" transform="translate(0,85.99635086994346)translate(360.80856902601613,428.6080133095486)translate(-0.0078125,-3.296875)" style="font-family:'Open Sans',verdana,arial,sans-serif;font-size:12px;fill:#2a3f5f;fill-opacity:1;white-space:pre"><tspan x="0" y="0" class="line" dy="0em">Zapopan</tspan><tspan x="0" y="0" class="line" dy="1.3em">3.12%</tspan></text></g><path fill="none" stroke-width="1.5" d="M327.07419402601613,414.36891590297944V514.604364179492h7.6484375" class="textline" style="stroke:#2a3f5f;stroke-opacity:1"/></g><g class="slice"><path d="M285,260l57.03791498554188,149.48804719475766a160,160 0 0 1 -0.07637581127286097,0.029119227356630972Z" class="surface" style="pointer-events:all;stroke-width:0;fill:#7f7f7f;fill-opacity:1;stroke:#444;stroke-opacity:1"/><g class="slicetext"><text x="0" y="0" class="slicetext" data-notex="1" text-anchor="middle" transform="translate(0,61.15249757932992)translate(381.2106664394086,422.85811660016213)translate(-0.046875,-3.296875)" style="font-family:'Open Sans',verdana,arial,sans-serif;font-size:12px;fill:#2a3f5f;fill-opacity:1;white-space:pre"><tspan x="0" y="0" class="line" dy="0em">Bristow</tspan><tspan x="0" y="0" class="line" dy="1.3em">0.00813%</tspan></text></g><path fill="none" stroke-width="1.5" d="M341.9997289394086,409.5026116856624V484.01061417949205h7.6484375" class="textline" style="stroke:#2a3f5f;stroke-opacity:1"/></g><g class="slice"><path d="M285,260l57.06813619650541,149.47651264013726a160,160 0 0 1 -0.030221210963524925,0.011534554620396875Z" class="surface" style="pointer-events:all;stroke-width:0;fill:#bcbd21;fill-opacity:1;stroke:#444;stroke-opacity:1"/><g class="slicetext"><text x="0" y="0" class="slicetext" data-notex="1" text-anchor="middle" transform="translate(0,30.58271079282764)translate(381.26396338251993,422.8341533866644)translate(-0.046875,-3.296875)" style="font-family:'Open Sans',verdana,arial,sans-serif;font-size:12px;fill:#2a3f5f;fill-opacity:1;white-space:pre"><tspan x="0" y="0" class="line" dy="0em">Chicago</tspan><tspan x="0" y="0" class="line" dy="1.3em">0.00322%</tspan></text></g><path fill="none" stroke-width="1.5" d="M342.05302588251993,409.48228068118476V453.41686417949205h7.6484375" class="textline" style="stroke:#2a3f5f;stroke-opacity:1"/></g><g class="slice"><path d="M285,260l57.08698265253667,149.46931595357282a160,160 0 0 1 -0.01884645603126245,0.007196686564441279Z" class="surface" style="pointer-events:all;stroke-width:0;fill:#17bdce;fill-opacity:1;stroke:#444;stroke-opacity:1"/><g class="slicetext"><text x="0" y="0" class="slicetext" data-notex="1" text-anchor="middle" transform="translate(384.6009970379463,422.82311417949205)translate(-0.453125,-3.296875)" style="font-family:'Open Sans',verdana,arial,sans-serif;font-size:12px;fill:#2a3f5f;fill-opacity:1;white-space:pre"><tspan x="0" y="0" class="line" dy="0em">Mexico City</tspan><tspan x="0" y="0" class="line" dy="1.3em">0.00201%</tspan></text></g></g></g></g><defs id="topdefs-cdf482"><clipPath id="legendcdf482"><rect width="190" height="200" x="0" y="0"/></clipPath></defs><g class="infolayer"><g class="legend" pointer-events="all" transform="translate(498.2, 100)"><rect width="190" height="200" x="0" y="0" class="bg" shape-rendering="crispEdges" style="stroke:#444;stroke-opacity:1;fill:#fff;fill-opacity:1;stroke-width:0"/><g class="scrollbox" clip-path="url('#legendcdf482')" transform="translate(0, 0)"><g class="groups"><g class="traces" transform="translate(0, 14.5)" style="opacity:1"><text x="40" y="4.68" class="legendtext user-select-none" text-anchor="start" style="font-family:'Open Sans',verdana,arial,sans-serif;font-size:12px;fill:#2a3f5f;fill-opacity:1;white-space:pre">Bothell</text><g class="layers" style="opacity:1"><g class="legendsymbols"><g class="legendpoints"><path d="M6,6H-6V-6H6Z" class="legendpie" transform="translate(20,0)" style="stroke-width:0;fill:#1f76b3;fill-opacity:1;stroke:#444;stroke-opacity:1"/></g></g></g><rect width="230" height="19" x="0" y="-9.5" class="legendtoggle" pointer-events="all" style="cursor:pointer;fill:#000;fill-opacity:0"/></g><g class="traces" transform="translate(0, 33.5)" style="opacity:1"><text x="40" y="4.68" class="legendtext user-select-none" text-anchor="start" style="font-family:'Open Sans',verdana,arial,sans-serif;font-size:12px;fill:#2a3f5f;fill-opacity:1;white-space:pre">Peterborough</text><g class="layers" style="opacity:1"><g class="legendsymbols"><g class="legendpoints"><path d="M6,6H-6V-6H6Z" class="legendpie" transform="translate(20,0)" style="stroke-width:0;fill:#fe7f0e;fill-opacity:1;stroke:#444;stroke-opacity:1"/></g></g></g><rect width="230" height="19" x="0" y="-9.5" class="legendtoggle" pointer-events="all" style="cursor:pointer;fill:#000;fill-opacity:0"/></g><g class="traces" transform="translate(0, 52.5)" style="opacity:1"><text x="40" y="4.68" class="legendtext user-select-none" text-anchor="start" style="font-family:'Open Sans',verdana,arial,sans-serif;font-size:12px;fill:#2a3f5f;fill-opacity:1;white-space:pre">Hohhot</text><g class="layers" style="opacity:1"><g class="legendsymbols"><g class="legendpoints"><path d="M6,6H-6V-6H6Z" class="legendpie" transform="translate(20,0)" style="stroke-width:0;fill:#2ca02c;fill-opacity:1;stroke:#444;stroke-opacity:1"/></g></g></g><rect width="230" height="19" x="0" y="-9.5" class="legendtoggle" pointer-events="all" style="cursor:pointer;fill:#000;fill-opacity:0"/></g><g class="traces" transform="translate(0, 71.5)" style="opacity:1"><text x="40" y="4.68" class="legendtext user-select-none" text-anchor="start" style="font-family:'Open Sans',verdana,arial,sans-serif;font-size:12px;fill:#2a3f5f;fill-opacity:1;white-space:pre">Villingen-Schwenningen</text><g class="layers" style="opacity:1"><g class="legendsymbols"><g class="legendpoints"><path d="M6,6H-6V-6H6Z" class="legendpie" transform="translate(20,0)" style="stroke-width:0;fill:#d62727;fill-opacity:1;stroke:#444;stroke-opacity:1"/></g></g></g><rect width="230" height="19" x="0" y="-9.5" class="legendtoggle" pointer-events="all" style="cursor:pointer;fill:#000;fill-opacity:0"/></g><g class="traces" transform="translate(0, 90.5)" style="opacity:1"><text x="40" y="4.68" class="legendtext user-select-none" text-anchor="start" style="font-family:'Open Sans',verdana,arial,sans-serif;font-size:12px;fill:#2a3f5f;fill-opacity:1;white-space:pre">Nantes</text><g class="layers" style="opacity:1"><g class="legendsymbols"><g class="legendpoints"><path d="M6,6H-6V-6H6Z" class="legendpie" transform="translate(20,0)" style="stroke-width:0;fill:#9366bd;fill-opacity:1;stroke:#444;stroke-opacity:1"/></g></g></g><rect width="230" height="19" x="0" y="-9.5" class="legendtoggle" pointer-events="all" style="cursor:pointer;fill:#000;fill-opacity:0"/></g><g class="traces" transform="translate(0, 109.5)" style="opacity:1"><text x="40" y="4.68" class="legendtext user-select-none" text-anchor="start" style="font-family:'Open Sans',verdana,arial,sans-serif;font-size:12px;fill:#2a3f5f;fill-opacity:1;white-space:pre">Cabo Frio</text><g class="layers" style="opacity:1"><g class="legendsymbols"><g class="legendpoints"><path d="M6,6H-6V-6H6Z" class="legendpie" transform="translate(20,0)" style="stroke-width:0;fill:#8c564a;fill-opacity:1;stroke:#444;stroke-opacity:1"/></g></g></g><rect width="230" height="19" x="0" y="-9.5" class="legendtoggle" pointer-events="all" style="cursor:pointer;fill:#000;fill-opacity:0"/></g><g class="traces" transform="translate(0, 128.5)" style="opacity:1"><text x="40" y="4.68" class="legendtext user-select-none" text-anchor="start" style="font-family:'Open Sans',verdana,arial,sans-serif;font-size:12px;fill:#2a3f5f;fill-opacity:1;white-space:pre">Zapopan</text><g class="layers" style="opacity:1"><g class="legendsymbols"><g class="legendpoints"><path d="M6,6H-6V-6H6Z" class="legendpie" transform="translate(20,0)" style="stroke-width:0;fill:#e377c1;fill-opacity:1;stroke:#444;stroke-opacity:1"/></g></g></g><rect width="230" height="19" x="0" y="-9.5" class="legendtoggle" pointer-events="all" style="cursor:pointer;fill:#000;fill-opacity:0"/></g><g class="traces" transform="translate(0, 147.5)" style="opacity:1"><text x="40" y="4.68" class="legendtext user-select-none" text-anchor="start" style="font-family:'Open Sans',verdana,arial,sans-serif;font-size:12px;fill:#2a3f5f;fill-opacity:1;white-space:pre">Bristow</text><g class="layers" style="opacity:1"><g class="legendsymbols"><g class="legendpoints"><path d="M6,6H-6V-6H6Z" class="legendpie" transform="translate(20,0)" style="stroke-width:0;fill:#7f7f7f;fill-opacity:1;stroke:#444;stroke-opacity:1"/></g></g></g><rect width="230" height="19" x="0" y="-9.5" class="legendtoggle" pointer-events="all" style="cursor:pointer;fill:#000;fill-opacity:0"/></g><g class="traces" transform="translate(0, 166.5)" style="opacity:1"><text x="40" y="4.68" class="legendtext user-select-none" text-anchor="start" style="font-family:'Open Sans',verdana,arial,sans-serif;font-size:12px;fill:#2a3f5f;fill-opacity:1;white-space:pre">Chicago</text><g class="layers" style="opacity:1"><g class="legendsymbols"><g class="legendpoints"><path d="M6,6H-6V-6H6Z" class="legendpie" transform="translate(20,0)" style="stroke-width:0;fill:#bcbd21;fill-opacity:1;stroke:#444;stroke-opacity:1"/></g></g></g><rect width="230" height="19" x="0" y="-9.5" class="legendtoggle" pointer-events="all" style="cursor:pointer;fill:#000;fill-opacity:0"/></g><g class="traces" transform="translate(0, 185.5)" style="opacity:1"><text x="40" y="4.68" class="legendtext user-select-none" text-anchor="start" style="font-family:'Open Sans',verdana,arial,sans-serif;font-size:12px;fill:#2a3f5f;fill-opacity:1;white-space:pre">Mexico City</text><g class="layers" style="opacity:1"><g class="legendsymbols"><g class="legendpoints"><path d="M6,6H-6V-6H6Z" class="legendpie" transform="translate(20,0)" style="stroke-width:0;fill:#17bdce;fill-opacity:1;stroke:#444;stroke-opacity:1"/></g></g></g><rect width="230" height="19" x="0" y="-9.5" class="legendtoggle" pointer-events="all" style="cursor:pointer;fill:#000;fill-opacity:0"/></g></g></g><rect width="0" height="0" x="0" y="0" class="scrollbar" rx="20" ry="3" style="fill:#808ba4;fill-opacity:1"/></g><g class="g-gtitle"><text x="35" y="50" class="gtitle" dy="0em" text-anchor="start" style="font-family:'Open Sans',verdana,arial,sans-serif;font-size:17px;fill:#2a3f5f;opacity:1;font-weight:400;white-space:pre">my apple pie</text></g><g class="annotation" data-index="0" style="opacity:1"><g class="annotation-text-g"><g class="cursor-pointer" transform="rotate(0,285,426.5) translate(263, 417)"><rect width="44" height="18" x=".5" y=".5" class="bg" style="stroke-width:1px;stroke:#000;stroke-opacity:0;fill:#000;fill-opacity:0"/><text x="22.531" y="14" class="annotation-text" text-anchor="middle" style="font-family:'Open Sans',verdana,arial,sans-serif;font-size:12px;fill:#2a3f5f;fill-opacity:1;white-space:pre">count_</text></g></g></g></g></svg>